<svg width="24" height="24" viewBox="0 0 24 24" fill="none" xmlns="http://www.w3.org/2000/svg">
<path d="M24 12C24 18.6274 18.6274 24 12 24C5.37258 24 0 18.6274 0 12C0 5.37258 5.37258 0 12 0C18.6274 0 24 5.37258 24 12Z" fill="#141024" fill-opacity="0.08"/>
<path d="M11.5486 7.8695C10.955 7.8695 10.6582 7.5895 10.6582 7.0295C10.6582 6.4807 10.955 6.2063 11.5486 6.2063C12.1422 6.2063 12.439 6.4807 12.439 7.0295C12.439 7.5895 12.1422 7.8695 11.5486 7.8695ZM11.5486 18.0839C11.1006 18.0839 10.8766 17.8375 10.8766 17.3447V10.4735C10.8766 9.9919 11.1006 9.7511 11.5486 9.7511C12.0078 9.7511 12.2374 9.9919 12.2374 10.4735V17.3447C12.2374 17.8375 12.0078 18.0839 11.5486 18.0839Z" fill="#141024"/>
</svg>
